<mxfile host="app.diagrams.net" modified="2024-05-12T00:08:36.580Z" agent="Mozilla/5.0 (Windows NT 10.0; Win64; x64) AppleWebKit/537.36 (KHTML, like Gecko) Chrome/124.0.0.0 Safari/537.36" etag="nN8uwpfMnOybPeASO4mF" version="24.3.1" type="device">
  <diagram name="Page-1" id="WIUA_KtScA_fHQIDNx0O">
    <mxGraphModel dx="2284" dy="772" grid="1" gridSize="10" guides="1" tooltips="1" connect="1" arrows="1" fold="1" page="1" pageScale="1" pageWidth="850" pageHeight="1100" math="0" shadow="0">
      <root>
        <mxCell id="0" />
        <mxCell id="1" parent="0" />
        <mxCell id="ou3ZJZifs9T72LoKDrKf-1" value="Image" style="rounded=0;whiteSpace=wrap;html=1;" parent="1" vertex="1">
          <mxGeometry x="110" y="290" width="120" height="60" as="geometry" />
        </mxCell>
        <mxCell id="ou3ZJZifs9T72LoKDrKf-2" value="Brain Activity" style="rounded=0;whiteSpace=wrap;html=1;" parent="1" vertex="1">
          <mxGeometry x="110" y="440" width="120" height="60" as="geometry" />
        </mxCell>
        <mxCell id="ou3ZJZifs9T72LoKDrKf-3" value="Image Captioning Model" style="rounded=0;whiteSpace=wrap;html=1;" parent="1" vertex="1">
          <mxGeometry x="-90" y="370" width="120" height="60" as="geometry" />
        </mxCell>
        <mxCell id="ou3ZJZifs9T72LoKDrKf-4" value="Generate&lt;div&gt;Caption&lt;/div&gt;" style="rounded=0;whiteSpace=wrap;html=1;" parent="1" vertex="1">
          <mxGeometry x="305" y="290" width="120" height="60" as="geometry" />
        </mxCell>
        <mxCell id="3Njv23WnA2pVUGg0iS0e-1" value="" style="endArrow=none;dashed=1;html=1;rounded=0;" edge="1" parent="1">
          <mxGeometry width="50" height="50" relative="1" as="geometry">
            <mxPoint x="70" y="560" as="sourcePoint" />
            <mxPoint x="70" y="250" as="targetPoint" />
          </mxGeometry>
        </mxCell>
        <mxCell id="3Njv23WnA2pVUGg0iS0e-2" value="" style="endArrow=none;dashed=1;html=1;rounded=0;" edge="1" parent="1">
          <mxGeometry width="50" height="50" relative="1" as="geometry">
            <mxPoint x="270" y="250" as="sourcePoint" />
            <mxPoint x="70" y="250" as="targetPoint" />
          </mxGeometry>
        </mxCell>
        <mxCell id="3Njv23WnA2pVUGg0iS0e-3" value="" style="endArrow=none;dashed=1;html=1;rounded=0;" edge="1" parent="1">
          <mxGeometry width="50" height="50" relative="1" as="geometry">
            <mxPoint x="270" y="560" as="sourcePoint" />
            <mxPoint x="70" y="560" as="targetPoint" />
          </mxGeometry>
        </mxCell>
        <mxCell id="3Njv23WnA2pVUGg0iS0e-4" value="" style="endArrow=none;dashed=1;html=1;rounded=0;" edge="1" parent="1">
          <mxGeometry width="50" height="50" relative="1" as="geometry">
            <mxPoint x="270" y="560" as="sourcePoint" />
            <mxPoint x="270" y="250" as="targetPoint" />
          </mxGeometry>
        </mxCell>
        <mxCell id="3Njv23WnA2pVUGg0iS0e-5" value="Image" style="rounded=0;whiteSpace=wrap;html=1;" vertex="1" parent="1">
          <mxGeometry x="-290" y="300" width="120" height="60" as="geometry" />
        </mxCell>
        <mxCell id="3Njv23WnA2pVUGg0iS0e-6" value="Brain Activity" style="rounded=0;whiteSpace=wrap;html=1;" vertex="1" parent="1">
          <mxGeometry x="-290" y="440" width="120" height="60" as="geometry" />
        </mxCell>
        <mxCell id="3Njv23WnA2pVUGg0iS0e-7" value="" style="endArrow=none;dashed=1;html=1;rounded=0;" edge="1" parent="1">
          <mxGeometry width="50" height="50" relative="1" as="geometry">
            <mxPoint x="-330" y="560" as="sourcePoint" />
            <mxPoint x="-330" y="250" as="targetPoint" />
          </mxGeometry>
        </mxCell>
        <mxCell id="3Njv23WnA2pVUGg0iS0e-8" value="" style="endArrow=none;dashed=1;html=1;rounded=0;" edge="1" parent="1">
          <mxGeometry width="50" height="50" relative="1" as="geometry">
            <mxPoint x="-130" y="250" as="sourcePoint" />
            <mxPoint x="-330" y="250" as="targetPoint" />
          </mxGeometry>
        </mxCell>
        <mxCell id="3Njv23WnA2pVUGg0iS0e-9" value="" style="endArrow=none;dashed=1;html=1;rounded=0;" edge="1" parent="1">
          <mxGeometry width="50" height="50" relative="1" as="geometry">
            <mxPoint x="-130" y="560" as="sourcePoint" />
            <mxPoint x="-330" y="560" as="targetPoint" />
          </mxGeometry>
        </mxCell>
        <mxCell id="3Njv23WnA2pVUGg0iS0e-10" value="" style="endArrow=none;dashed=1;html=1;rounded=0;" edge="1" parent="1">
          <mxGeometry width="50" height="50" relative="1" as="geometry">
            <mxPoint x="-130" y="560" as="sourcePoint" />
            <mxPoint x="-130" y="250" as="targetPoint" />
          </mxGeometry>
        </mxCell>
        <mxCell id="3Njv23WnA2pVUGg0iS0e-11" value="" style="endArrow=classic;html=1;rounded=0;exitX=1;exitY=0.5;exitDx=0;exitDy=0;" edge="1" parent="1" source="3Njv23WnA2pVUGg0iS0e-5" target="ou3ZJZifs9T72LoKDrKf-3">
          <mxGeometry width="50" height="50" relative="1" as="geometry">
            <mxPoint x="-220" y="440" as="sourcePoint" />
            <mxPoint x="-170" y="390" as="targetPoint" />
          </mxGeometry>
        </mxCell>
        <mxCell id="3Njv23WnA2pVUGg0iS0e-12" value="" style="endArrow=classic;html=1;rounded=0;exitX=1;exitY=0.5;exitDx=0;exitDy=0;" edge="1" parent="1" source="3Njv23WnA2pVUGg0iS0e-6" target="ou3ZJZifs9T72LoKDrKf-3">
          <mxGeometry width="50" height="50" relative="1" as="geometry">
            <mxPoint x="-160" y="340" as="sourcePoint" />
            <mxPoint x="-70" y="410" as="targetPoint" />
          </mxGeometry>
        </mxCell>
        <mxCell id="3Njv23WnA2pVUGg0iS0e-13" value="Flick30K Dataset" style="text;html=1;align=center;verticalAlign=middle;resizable=0;points=[];autosize=1;strokeColor=none;fillColor=none;" vertex="1" parent="1">
          <mxGeometry x="-285" y="220" width="110" height="30" as="geometry" />
        </mxCell>
        <mxCell id="3Njv23WnA2pVUGg0iS0e-14" value="NSD&amp;nbsp;" style="text;html=1;align=center;verticalAlign=middle;resizable=0;points=[];autosize=1;strokeColor=none;fillColor=none;" vertex="1" parent="1">
          <mxGeometry x="145" y="220" width="50" height="30" as="geometry" />
        </mxCell>
        <mxCell id="3Njv23WnA2pVUGg0iS0e-15" value="" style="endArrow=classic;html=1;rounded=0;exitX=1;exitY=0.5;exitDx=0;exitDy=0;" edge="1" parent="1" source="ou3ZJZifs9T72LoKDrKf-3" target="ou3ZJZifs9T72LoKDrKf-1">
          <mxGeometry width="50" height="50" relative="1" as="geometry">
            <mxPoint x="180" y="440" as="sourcePoint" />
            <mxPoint x="230" y="390" as="targetPoint" />
          </mxGeometry>
        </mxCell>
        <mxCell id="3Njv23WnA2pVUGg0iS0e-16" value="" style="endArrow=classic;html=1;rounded=0;exitX=1;exitY=0.5;exitDx=0;exitDy=0;entryX=0;entryY=0.5;entryDx=0;entryDy=0;" edge="1" parent="1" source="ou3ZJZifs9T72LoKDrKf-1" target="ou3ZJZifs9T72LoKDrKf-4">
          <mxGeometry width="50" height="50" relative="1" as="geometry">
            <mxPoint x="70" y="410" as="sourcePoint" />
            <mxPoint x="180" y="358" as="targetPoint" />
          </mxGeometry>
        </mxCell>
        <mxCell id="3Njv23WnA2pVUGg0iS0e-18" value="Brain Activity Captioning Model" style="rounded=0;whiteSpace=wrap;html=1;" vertex="1" parent="1">
          <mxGeometry x="530" y="370" width="120" height="60" as="geometry" />
        </mxCell>
        <mxCell id="3Njv23WnA2pVUGg0iS0e-19" value="" style="endArrow=classic;html=1;rounded=0;exitX=1;exitY=0.5;exitDx=0;exitDy=0;entryX=0;entryY=1;entryDx=0;entryDy=0;" edge="1" parent="1" source="ou3ZJZifs9T72LoKDrKf-2" target="3Njv23WnA2pVUGg0iS0e-18">
          <mxGeometry width="50" height="50" relative="1" as="geometry">
            <mxPoint x="40" y="410" as="sourcePoint" />
            <mxPoint x="128" y="360" as="targetPoint" />
          </mxGeometry>
        </mxCell>
        <mxCell id="3Njv23WnA2pVUGg0iS0e-21" value="" style="endArrow=classic;html=1;rounded=0;exitX=1;exitY=0.5;exitDx=0;exitDy=0;" edge="1" parent="1" source="ou3ZJZifs9T72LoKDrKf-4" target="3Njv23WnA2pVUGg0iS0e-18">
          <mxGeometry width="50" height="50" relative="1" as="geometry">
            <mxPoint x="240" y="330" as="sourcePoint" />
            <mxPoint x="310" y="330" as="targetPoint" />
          </mxGeometry>
        </mxCell>
      </root>
    </mxGraphModel>
  </diagram>
</mxfile>
